<svg width="163" height="54" viewBox="0 0 163 54" fill="none" xmlns="http://www.w3.org/2000/svg">
<path d="M0.5 4C0.5 2.067 2.067 0.5 4 0.5H159C160.933 0.5 162.5 2.067 162.5 4V50C162.5 51.933 160.933 53.5 159 53.5H4C2.067 53.5 0.5 51.933 0.5 50V4Z" fill="#0B2330" stroke="#0B2330"/>
<path d="M36.3828 28.125C36.3828 27.8594 36.3411 27.625 36.2578 27.4219C36.1797 27.2135 36.0391 27.026 35.8359 26.8594C35.638 26.6927 35.362 26.5339 35.0078 26.3828C34.6589 26.2318 34.2161 26.0781 33.6797 25.9219C33.1172 25.7552 32.6094 25.5703 32.1562 25.3672C31.7031 25.1589 31.3151 24.9219 30.9922 24.6562C30.6693 24.3906 30.4219 24.0859 30.25 23.7422C30.0781 23.3984 29.9922 23.0052 29.9922 22.5625C29.9922 22.1198 30.0833 21.7109 30.2656 21.3359C30.4479 20.9609 30.7083 20.6354 31.0469 20.3594C31.3906 20.0781 31.7995 19.8594 32.2734 19.7031C32.7474 19.5469 33.276 19.4688 33.8594 19.4688C34.7135 19.4688 35.4375 19.6328 36.0312 19.9609C36.6302 20.2839 37.0859 20.7083 37.3984 21.2344C37.7109 21.7552 37.8672 22.3125 37.8672 22.9062H36.3672C36.3672 22.4792 36.276 22.1016 36.0938 21.7734C35.9115 21.4401 35.6354 21.1797 35.2656 20.9922C34.8958 20.7995 34.4271 20.7031 33.8594 20.7031C33.3229 20.7031 32.8802 20.7839 32.5312 20.9453C32.1823 21.1068 31.9219 21.3255 31.75 21.6016C31.5833 21.8776 31.5 22.1927 31.5 22.5469C31.5 22.7865 31.5495 23.0052 31.6484 23.2031C31.7526 23.3958 31.9115 23.5755 32.125 23.7422C32.3438 23.9089 32.6198 24.0625 32.9531 24.2031C33.2917 24.3438 33.6953 24.4792 34.1641 24.6094C34.8099 24.7917 35.3672 24.9948 35.8359 25.2188C36.3047 25.4427 36.6901 25.6953 36.9922 25.9766C37.2995 26.2526 37.526 26.5677 37.6719 26.9219C37.8229 27.2708 37.8984 27.6667 37.8984 28.1094C37.8984 28.5729 37.8047 28.9922 37.6172 29.3672C37.4297 29.7422 37.1615 30.0625 36.8125 30.3281C36.4635 30.5938 36.0443 30.7995 35.5547 30.9453C35.0703 31.0859 34.5286 31.1562 33.9297 31.1562C33.4036 31.1562 32.8854 31.0833 32.375 30.9375C31.8698 30.7917 31.4089 30.5729 30.9922 30.2812C30.5807 29.9896 30.25 29.6302 30 29.2031C29.7552 28.7708 29.6328 28.2708 29.6328 27.7031H31.1328C31.1328 28.0938 31.2083 28.4297 31.3594 28.7109C31.5104 28.987 31.7161 29.2161 31.9766 29.3984C32.2422 29.5807 32.5417 29.7161 32.875 29.8047C33.2135 29.888 33.5651 29.9297 33.9297 29.9297C34.4557 29.9297 34.901 29.8568 35.2656 29.7109C35.6302 29.5651 35.9062 29.3568 36.0938 29.0859C36.2865 28.8151 36.3828 28.4948 36.3828 28.125ZM43.1406 22.5469V23.6562H38.5703V22.5469H43.1406ZM40.1172 20.4922H41.5625V28.9062C41.5625 29.1927 41.6068 29.4089 41.6953 29.5547C41.7839 29.7005 41.8984 29.7969 42.0391 29.8438C42.1797 29.8906 42.3307 29.9141 42.4922 29.9141C42.612 29.9141 42.737 29.9036 42.8672 29.8828C43.0026 29.8568 43.1042 29.8359 43.1719 29.8203L43.1797 31C43.0651 31.0365 42.9141 31.0703 42.7266 31.1016C42.5443 31.138 42.3229 31.1562 42.0625 31.1562C41.7083 31.1562 41.3828 31.0859 41.0859 30.9453C40.7891 30.8047 40.5521 30.5703 40.375 30.2422C40.2031 29.9089 40.1172 29.4609 40.1172 28.8984V20.4922ZM49.8203 29.5547V25.2031C49.8203 24.8698 49.7526 24.5807 49.6172 24.3359C49.487 24.0859 49.2891 23.8932 49.0234 23.7578C48.7578 23.6224 48.4297 23.5547 48.0391 23.5547C47.6745 23.5547 47.3542 23.6172 47.0781 23.7422C46.8073 23.8672 46.5938 24.0312 46.4375 24.2344C46.2865 24.4375 46.2109 24.6562 46.2109 24.8906H44.7656C44.7656 24.5885 44.8438 24.2891 45 23.9922C45.1562 23.6953 45.3802 23.4271 45.6719 23.1875C45.9688 22.9427 46.3229 22.75 46.7344 22.6094C47.151 22.4635 47.6146 22.3906 48.125 22.3906C48.7396 22.3906 49.2812 22.4948 49.75 22.7031C50.224 22.9115 50.5938 23.2266 50.8594 23.6484C51.1302 24.0651 51.2656 24.5885 51.2656 25.2188V29.1562C51.2656 29.4375 51.2891 29.737 51.3359 30.0547C51.388 30.3724 51.4635 30.6458 51.5625 30.875V31H50.0547C49.9818 30.8333 49.9245 30.612 49.8828 30.3359C49.8411 30.0547 49.8203 29.7943 49.8203 29.5547ZM50.0703 25.875L50.0859 26.8906H48.625C48.2135 26.8906 47.8464 26.9245 47.5234 26.9922C47.2005 27.0547 46.9297 27.151 46.7109 27.2812C46.4922 27.4115 46.3255 27.5755 46.2109 27.7734C46.0964 27.9661 46.0391 28.1927 46.0391 28.4531C46.0391 28.7188 46.099 28.9609 46.2188 29.1797C46.3385 29.3984 46.5182 29.5729 46.7578 29.7031C47.0026 29.8281 47.3021 29.8906 47.6562 29.8906C48.099 29.8906 48.4896 29.7969 48.8281 29.6094C49.1667 29.4219 49.4349 29.1927 49.6328 28.9219C49.8359 28.651 49.9453 28.388 49.9609 28.1328L50.5781 28.8281C50.5417 29.0469 50.4427 29.2891 50.2812 29.5547C50.1198 29.8203 49.9036 30.0755 49.6328 30.3203C49.3672 30.5599 49.0495 30.7604 48.6797 30.9219C48.3151 31.0781 47.9036 31.1562 47.4453 31.1562C46.8724 31.1562 46.3698 31.0443 45.9375 30.8203C45.5104 30.5964 45.1771 30.2969 44.9375 29.9219C44.7031 29.5417 44.5859 29.1172 44.5859 28.6484C44.5859 28.1953 44.6745 27.7969 44.8516 27.4531C45.0286 27.1042 45.2839 26.8151 45.6172 26.5859C45.9505 26.3516 46.3516 26.1745 46.8203 26.0547C47.2891 25.9349 47.8125 25.875 48.3906 25.875H50.0703ZM54.9844 23.875V31H53.5391V22.5469H54.9453L54.9844 23.875ZM57.625 22.5L57.6172 23.8438C57.4974 23.8177 57.3828 23.8021 57.2734 23.7969C57.1693 23.7865 57.0495 23.7812 56.9141 23.7812C56.5807 23.7812 56.2865 23.8333 56.0312 23.9375C55.776 24.0417 55.5599 24.1875 55.3828 24.375C55.2057 24.5625 55.0651 24.7865 54.9609 25.0469C54.862 25.3021 54.7969 25.5833 54.7656 25.8906L54.3594 26.125C54.3594 25.6146 54.4089 25.1354 54.5078 24.6875C54.612 24.2396 54.7708 23.8438 54.9844 23.5C55.1979 23.151 55.4688 22.8802 55.7969 22.6875C56.1302 22.4896 56.526 22.3906 56.9844 22.3906C57.0885 22.3906 57.2083 22.4036 57.3438 22.4297C57.4792 22.4505 57.5729 22.474 57.625 22.5ZM62.8906 22.5469V23.6562H58.3203V22.5469H62.8906ZM59.8672 20.4922H61.3125V28.9062C61.3125 29.1927 61.3568 29.4089 61.4453 29.5547C61.5339 29.7005 61.6484 29.7969 61.7891 29.8438C61.9297 29.8906 62.0807 29.9141 62.2422 29.9141C62.362 29.9141 62.487 29.9036 62.6172 29.8828C62.7526 29.8568 62.8542 29.8359 62.9219 29.8203L62.9297 31C62.8151 31.0365 62.6641 31.0703 62.4766 31.1016C62.2943 31.138 62.0729 31.1562 61.8125 31.1562C61.4583 31.1562 61.1328 31.0859 60.8359 30.9453C60.5391 30.8047 60.3021 30.5703 60.125 30.2422C59.9531 29.9089 59.8672 29.4609 59.8672 28.8984V20.4922ZM70.7109 31H69.2656V21.6562C69.2656 21.0469 69.375 20.5339 69.5938 20.1172C69.8177 19.6953 70.138 19.3776 70.5547 19.1641C70.9714 18.9453 71.4661 18.8359 72.0391 18.8359C72.2057 18.8359 72.3724 18.8464 72.5391 18.8672C72.7109 18.888 72.8776 18.9193 73.0391 18.9609L72.9609 20.1406C72.8516 20.1146 72.7266 20.0964 72.5859 20.0859C72.4505 20.0755 72.3151 20.0703 72.1797 20.0703C71.8724 20.0703 71.6068 20.1328 71.3828 20.2578C71.1641 20.3776 70.9974 20.5547 70.8828 20.7891C70.7682 21.0234 70.7109 21.3125 70.7109 21.6562V31ZM72.5078 22.5469V23.6562H67.9297V22.5469H72.5078ZM73.7344 26.8672V26.6875C73.7344 26.0781 73.8229 25.513 74 24.9922C74.1771 24.4661 74.4323 24.0104 74.7656 23.625C75.099 23.2344 75.5026 22.9323 75.9766 22.7188C76.4505 22.5 76.9818 22.3906 77.5703 22.3906C78.1641 22.3906 78.6979 22.5 79.1719 22.7188C79.651 22.9323 80.0573 23.2344 80.3906 23.625C80.7292 24.0104 80.987 24.4661 81.1641 24.9922C81.3411 25.513 81.4297 26.0781 81.4297 26.6875V26.8672C81.4297 27.4766 81.3411 28.0417 81.1641 28.5625C80.987 29.0833 80.7292 29.5391 80.3906 29.9297C80.0573 30.3151 79.6536 30.6172 79.1797 30.8359C78.7109 31.0495 78.1797 31.1562 77.5859 31.1562C76.9922 31.1562 76.4583 31.0495 75.9844 30.8359C75.5104 30.6172 75.1042 30.3151 74.7656 29.9297C74.4323 29.5391 74.1771 29.0833 74 28.5625C73.8229 28.0417 73.7344 27.4766 73.7344 26.8672ZM75.1797 26.6875V26.8672C75.1797 27.2891 75.2292 27.6875 75.3281 28.0625C75.4271 28.4323 75.5755 28.7604 75.7734 29.0469C75.9766 29.3333 76.2292 29.5599 76.5312 29.7266C76.8333 29.888 77.1849 29.9688 77.5859 29.9688C77.9818 29.9688 78.3281 29.888 78.625 29.7266C78.9271 29.5599 79.1771 29.3333 79.375 29.0469C79.5729 28.7604 79.7214 28.4323 79.8203 28.0625C79.9245 27.6875 79.9766 27.2891 79.9766 26.8672V26.6875C79.9766 26.2708 79.9245 25.8776 79.8203 25.5078C79.7214 25.1328 79.5703 24.8021 79.3672 24.5156C79.1693 24.224 78.9193 23.9948 78.6172 23.8281C78.3203 23.6615 77.9714 23.5781 77.5703 23.5781C77.1745 23.5781 76.8255 23.6615 76.5234 23.8281C76.2266 23.9948 75.9766 24.224 75.7734 24.5156C75.5755 24.8021 75.4271 25.1328 75.3281 25.5078C75.2292 25.8776 75.1797 26.2708 75.1797 26.6875ZM84.6875 23.875V31H83.2422V22.5469H84.6484L84.6875 23.875ZM87.3281 22.5L87.3203 23.8438C87.2005 23.8177 87.0859 23.8021 86.9766 23.7969C86.8724 23.7865 86.7526 23.7812 86.6172 23.7812C86.2839 23.7812 85.9896 23.8333 85.7344 23.9375C85.4792 24.0417 85.263 24.1875 85.0859 24.375C84.9089 24.5625 84.7682 24.7865 84.6641 25.0469C84.5651 25.3021 84.5 25.5833 84.4688 25.8906L84.0625 26.125C84.0625 25.6146 84.112 25.1354 84.2109 24.6875C84.3151 24.2396 84.474 23.8438 84.6875 23.5C84.901 23.151 85.1719 22.8802 85.5 22.6875C85.8333 22.4896 86.2292 22.3906 86.6875 22.3906C86.7917 22.3906 86.9115 22.4036 87.0469 22.4297C87.1823 22.4505 87.276 22.474 87.3281 22.5ZM94.3594 19.625V31H92.8516V19.625H94.3594ZM99.125 24.7422V25.9766H94.0312V24.7422H99.125ZM99.8984 19.625V20.8594H94.0312V19.625H99.8984ZM102.719 23.875V31H101.273V22.5469H102.68L102.719 23.875ZM105.359 22.5L105.352 23.8438C105.232 23.8177 105.117 23.8021 105.008 23.7969C104.904 23.7865 104.784 23.7812 104.648 23.7812C104.315 23.7812 104.021 23.8333 103.766 23.9375C103.51 24.0417 103.294 24.1875 103.117 24.375C102.94 24.5625 102.799 24.7865 102.695 25.0469C102.596 25.3021 102.531 25.5833 102.5 25.8906L102.094 26.125C102.094 25.6146 102.143 25.1354 102.242 24.6875C102.346 24.2396 102.505 23.8438 102.719 23.5C102.932 23.151 103.203 22.8802 103.531 22.6875C103.865 22.4896 104.26 22.3906 104.719 22.3906C104.823 22.3906 104.943 22.4036 105.078 22.4297C105.214 22.4505 105.307 22.474 105.359 22.5ZM110.047 31.1562C109.458 31.1562 108.924 31.0573 108.445 30.8594C107.971 30.6562 107.562 30.3724 107.219 30.0078C106.88 29.6432 106.62 29.2109 106.438 28.7109C106.255 28.2109 106.164 27.6641 106.164 27.0703V26.7422C106.164 26.0547 106.266 25.4427 106.469 24.9062C106.672 24.3646 106.948 23.9062 107.297 23.5312C107.646 23.1562 108.042 22.8724 108.484 22.6797C108.927 22.487 109.385 22.3906 109.859 22.3906C110.464 22.3906 110.984 22.4948 111.422 22.7031C111.865 22.9115 112.227 23.2031 112.508 23.5781C112.789 23.9479 112.997 24.3854 113.133 24.8906C113.268 25.3906 113.336 25.9375 113.336 26.5312V27.1797H107.023V26H111.891V25.8906C111.87 25.5156 111.792 25.151 111.656 24.7969C111.526 24.4427 111.318 24.151 111.031 23.9219C110.745 23.6927 110.354 23.5781 109.859 23.5781C109.531 23.5781 109.229 23.6484 108.953 23.7891C108.677 23.9245 108.44 24.1276 108.242 24.3984C108.044 24.6693 107.891 25 107.781 25.3906C107.672 25.7812 107.617 26.2318 107.617 26.7422V27.0703C107.617 27.4714 107.672 27.849 107.781 28.2031C107.896 28.5521 108.06 28.8594 108.273 29.125C108.492 29.3906 108.755 29.599 109.062 29.75C109.375 29.901 109.729 29.9766 110.125 29.9766C110.635 29.9766 111.068 29.8724 111.422 29.6641C111.776 29.4557 112.086 29.1771 112.352 28.8281L113.227 29.5234C113.044 29.7995 112.812 30.0625 112.531 30.3125C112.25 30.5625 111.904 30.7656 111.492 30.9219C111.086 31.0781 110.604 31.1562 110.047 31.1562ZM118.531 31.1562C117.943 31.1562 117.409 31.0573 116.93 30.8594C116.456 30.6562 116.047 30.3724 115.703 30.0078C115.365 29.6432 115.104 29.2109 114.922 28.7109C114.74 28.2109 114.648 27.6641 114.648 27.0703V26.7422C114.648 26.0547 114.75 25.4427 114.953 24.9062C115.156 24.3646 115.432 23.9062 115.781 23.5312C116.13 23.1562 116.526 22.8724 116.969 22.6797C117.411 22.487 117.87 22.3906 118.344 22.3906C118.948 22.3906 119.469 22.4948 119.906 22.7031C120.349 22.9115 120.711 23.2031 120.992 23.5781C121.273 23.9479 121.482 24.3854 121.617 24.8906C121.753 25.3906 121.82 25.9375 121.82 26.5312V27.1797H115.508V26H120.375V25.8906C120.354 25.5156 120.276 25.151 120.141 24.7969C120.01 24.4427 119.802 24.151 119.516 23.9219C119.229 23.6927 118.839 23.5781 118.344 23.5781C118.016 23.5781 117.714 23.6484 117.438 23.7891C117.161 23.9245 116.924 24.1276 116.727 24.3984C116.529 24.6693 116.375 25 116.266 25.3906C116.156 25.7812 116.102 26.2318 116.102 26.7422V27.0703C116.102 27.4714 116.156 27.849 116.266 28.2031C116.38 28.5521 116.544 28.8594 116.758 29.125C116.977 29.3906 117.24 29.599 117.547 29.75C117.859 29.901 118.214 29.9766 118.609 29.9766C119.12 29.9766 119.552 29.8724 119.906 29.6641C120.26 29.4557 120.57 29.1771 120.836 28.8281L121.711 29.5234C121.529 29.7995 121.297 30.0625 121.016 30.3125C120.734 30.5625 120.388 30.7656 119.977 30.9219C119.57 31.0781 119.089 31.1562 118.531 31.1562Z" fill="white"/>
</svg>
